<svg width="20" height="20" viewBox="0 0 20 20" fill="none" xmlns="http://www.w3.org/2000/svg">
<path d="M13.6332 11.6666C13.6998 11.1166 13.7498 10.5666 13.7498 9.99993C13.7498 9.43326 13.6998 8.88326 13.6332 8.33326H16.4498C16.5832 8.8666 16.6665 9.42493 16.6665 9.99993C16.6665 10.5749 16.5832 11.1333 16.4498 11.6666H13.6332ZM12.1582 16.2999C12.6582 15.3749 13.0415 14.3749 13.3082 13.3333H15.7665C14.9665 14.7083 13.6915 15.7749 12.1582 16.2999ZM11.9498 11.6666H8.04984C7.9665 11.1166 7.9165 10.5666 7.9165 9.99993C7.9165 9.43326 7.9665 8.87493 8.04984 8.33326H11.9498C12.0248 8.87493 12.0832 9.43326 12.0832 9.99993C12.0832 10.5666 12.0248 11.1166 11.9498 11.6666ZM9.99984 16.6333C9.30817 15.6333 8.74984 14.5249 8.40817 13.3333H11.5915C11.2498 14.5249 10.6915 15.6333 9.99984 16.6333ZM6.6665 6.6666H4.23317C5.02484 5.28326 6.30817 4.2166 7.83317 3.69993C7.33317 4.62493 6.95817 5.62493 6.6665 6.6666ZM4.23317 13.3333H6.6665C6.95817 14.3749 7.33317 15.3749 7.83317 16.2999C6.30817 15.7749 5.02484 14.7083 4.23317 13.3333ZM3.54984 11.6666C3.4165 11.1333 3.33317 10.5749 3.33317 9.99993C3.33317 9.42493 3.4165 8.8666 3.54984 8.33326H6.3665C6.29984 8.88326 6.24984 9.43326 6.24984 9.99993C6.24984 10.5666 6.29984 11.1166 6.3665 11.6666H3.54984ZM9.99984 3.35826C10.6915 4.35826 11.2498 5.47493 11.5915 6.6666H8.40817C8.74984 5.47493 9.30817 4.35826 9.99984 3.35826ZM15.7665 6.6666H13.3082C13.0415 5.62493 12.6582 4.62493 12.1582 3.69993C13.6915 4.22493 14.9665 5.28326 15.7665 6.6666ZM9.99984 1.6666C5.3915 1.6666 1.6665 5.4166 1.6665 9.99993C1.6665 12.2101 2.54448 14.3297 4.10728 15.8925C4.8811 16.6663 5.79976 17.2801 6.81081 17.6989C7.82186 18.1177 8.90549 18.3333 9.99984 18.3333C12.21 18.3333 14.3296 17.4553 15.8924 15.8925C17.4552 14.3297 18.3332 12.2101 18.3332 9.99993C18.3332 8.90558 18.1176 7.82195 17.6988 6.8109C17.28 5.79985 16.6662 4.88119 15.8924 4.10737C15.1186 3.33355 14.1999 2.71972 13.1889 2.30093C12.1778 1.88214 11.0942 1.6666 9.99984 1.6666Z" fill="#ADBFDF"/>
</svg>
